<svg width="264" height="26" viewBox="0 0 264 26" fill="none" xmlns="http://www.w3.org/2000/svg">
<path fill-rule="evenodd" clip-rule="evenodd" d="M126.864 25.9559C124.925 25.9559 123.163 25.6034 121.532 24.9424C119.902 24.2814 118.492 23.3559 117.302 22.1661C116.112 21.0203 115.186 19.6542 114.525 18.0678C113.864 16.4814 113.556 14.8068 113.556 13.0441V12.9559C113.556 11.1492 113.909 9.47458 114.57 7.9322C115.231 6.34576 116.156 4.97966 117.346 3.78983C118.536 2.6 119.946 1.67458 121.576 1.01356C123.207 0.352542 125.014 0 126.953 0C128.892 0 130.654 0.352542 132.285 1.01356C133.915 1.67458 135.325 2.6 136.515 3.78983C137.705 4.93559 138.631 6.30169 139.292 7.88813C139.953 9.47458 140.261 11.1492 140.261 12.9119V13C140.261 14.8068 139.909 16.4814 139.248 18.0237C138.587 19.6102 137.661 20.9763 136.471 22.1661C135.281 23.3559 133.871 24.2814 132.241 24.9424C130.566 25.6475 128.803 25.9559 126.864 25.9559ZM126.953 20.9763C128.054 20.9763 129.112 20.7559 130.037 20.3593C130.963 19.9627 131.8 19.3898 132.461 18.6407C133.122 17.8915 133.651 17.0542 134.048 16.1288C134.4 15.1593 134.62 14.1458 134.62 13.0441V12.9559C134.62 11.8542 134.444 10.8407 134.048 9.87119C133.651 8.90169 133.122 8.06441 132.461 7.31525C131.756 6.5661 130.963 5.99322 129.993 5.59661C129.068 5.15593 128.01 4.97966 126.909 4.97966C125.763 4.97966 124.749 5.2 123.78 5.59661C122.854 5.99322 122.061 6.5661 121.4 7.31525C120.739 8.06441 120.21 8.90169 119.814 9.82712C119.417 10.7966 119.241 11.8102 119.241 12.9119V13C119.241 14.1017 119.417 15.1153 119.814 16.0847C120.21 17.0542 120.739 17.8915 121.4 18.6407C122.105 19.3898 122.898 19.9627 123.824 20.3593C124.749 20.7559 125.807 20.9763 126.953 20.9763ZM0.0813904 0.617121H5.50173V20.4036H18.2373V25.2951H0.0813904V0.617121ZM26.7865 0.617121H21.3662V25.2951H26.7865V0.617121ZM36.217 0.617121H30.7966V25.2951H36.217V17.7595L39.0814 14.7629L46.7492 25.2951H53.2712L42.739 11.0612L52.7865 0.617121H46.2644L36.217 11.1934V0.617121ZM55.2984 0.617121H74.4679V5.46458H60.6306V10.5324H73.8509V15.3798H60.6306V20.4476H74.4679V25.2951H55.2984V0.617121ZM89.5831 0.617121H84.1628V25.2951H102.319V20.4036H89.5831V0.617121ZM110.824 0.617121H105.403V25.2951H110.824V0.617121ZM148.37 0.617121H143.17V25.2951H148.722V9.60695L160.664 25.2951H165.512V0.617121H159.915V15.8205L148.37 0.617121ZM204.909 0.617121H199.709V25.2951H205.261V9.60695L217.248 25.2951H222.095V0.617121H216.498V15.8205L204.909 0.617121ZM231.261 0.617121H225.841V25.2951H231.261V0.617121ZM188.868 19.4341C187.986 20.4476 186.62 20.9764 184.902 20.9764L184.681 20.9324C181.112 20.9324 179.349 18.8171 179.349 14.4544V0.617121H179.085H173.444V14.6747C173.444 18.2883 174.458 21.1086 176.397 23.0476C178.336 24.9866 181.112 25.9561 184.637 25.9561H184.858C188.383 25.9561 191.159 24.9866 193.098 23.0476C195.081 21.1086 196.051 18.2883 196.051 14.6747V0.617121H190.498H190.234V14.4985C190.234 16.7459 189.793 18.4205 188.868 19.4341ZM255.322 0.617121H255.234L247.698 18.0239L240.295 0.617121H240.207H234.037L244.658 25.2951H250.298L261.007 0.617121H255.322ZM263.651 22.8712C263.651 24.4532 262.368 25.7356 260.787 25.7356C259.205 25.7356 257.922 24.4532 257.922 22.8712C257.922 21.2893 259.205 20.0068 260.787 20.0068C262.368 20.0068 263.651 21.2893 263.651 22.8712Z" fill="white"/>
</svg>
