<svg width="91" height="26" viewBox="0 0 91 26" fill="none" xmlns="http://www.w3.org/2000/svg">
<path fill-rule="evenodd" clip-rule="evenodd" d="M15.4237 19.1475C14.5424 20.1611 13.1763 20.6899 11.4576 20.6899L11.2373 20.6458C7.66779 20.6458 5.90506 18.5306 5.90506 14.1679V0.330566H5.64067H0V14.3882C0 18.0018 1.01356 20.8221 2.95254 22.7611C4.89153 24.7001 7.66777 25.6695 11.1932 25.6695H11.4135C14.939 25.6695 17.7152 24.7001 19.6542 22.7611C21.6373 20.8221 22.6068 18.0018 22.6068 14.3882V0.330566H17.0542H16.7898V14.2119C16.7898 16.4594 16.3491 18.134 15.4237 19.1475ZM26.2646 0.330566H31.4647L43.0545 15.534V0.330566H48.6511V25.0085H43.8037L31.8172 9.3204V25.0085H26.2646V0.330566ZM57.8169 0.330566H52.3966V25.0085H57.8169V0.330566ZM81.8779 0.330566H81.7898L74.2542 17.7373L66.8508 0.330566H66.7627H60.5932L71.2135 25.0085H76.8542L87.5627 0.330566H81.8779ZM90.2068 22.5847C90.2068 24.1667 88.9244 25.4491 87.3424 25.4491C85.7605 25.4491 84.4781 24.1667 84.4781 22.5847C84.4781 21.0027 85.7605 19.7203 87.3424 19.7203C88.9244 19.7203 90.2068 21.0027 90.2068 22.5847Z" fill="white"/>
</svg>
